<mxfile host="65bd71144e">
    <diagram id="Uy986KGVX4YS-kIAA33W" name="Page-1">
        <mxGraphModel dx="1501" dy="1472" grid="1" gridSize="10" guides="1" tooltips="1" connect="1" arrows="1" fold="1" page="1" pageScale="1" pageWidth="850" pageHeight="1100" math="0" shadow="0">
            <root>
                <mxCell id="0"/>
                <mxCell id="1" parent="0"/>
                <mxCell id="33" value="&lt;font face=&quot;helvetica&quot;&gt;&lt;span style=&quot;font-size: 22px&quot;&gt;4096 bytes&lt;/span&gt;&lt;/font&gt;" style="rounded=0;whiteSpace=wrap;html=1;fillColor=#a20025;fontColor=#ffffff;strokeColor=#6F0000;" parent="1" vertex="1">
                    <mxGeometry x="100" y="145" width="160" height="60" as="geometry"/>
                </mxCell>
                <mxCell id="34" value="" style="rounded=0;whiteSpace=wrap;html=1;sketch=0;strokeColor=#000000;fillColor=#60A917;" parent="1" vertex="1">
                    <mxGeometry x="260" y="145" width="50" height="60" as="geometry"/>
                </mxCell>
                <mxCell id="35" value="" style="rounded=0;whiteSpace=wrap;html=1;strokeColor=#000000;fillColor=#60A917;" parent="1" vertex="1">
                    <mxGeometry x="50" y="145" width="50" height="60" as="geometry"/>
                </mxCell>
                <mxCell id="36" value="&lt;font style=&quot;font-size: 32px&quot;&gt;...&lt;/font&gt;" style="text;html=1;strokeColor=none;fillColor=none;align=center;verticalAlign=middle;whiteSpace=wrap;rounded=0;sketch=0;fontColor=#000000;" parent="1" vertex="1">
                    <mxGeometry x="10" y="145" width="40" height="40" as="geometry"/>
                </mxCell>
                <mxCell id="37" value="&lt;font style=&quot;font-size: 32px&quot;&gt;...&lt;/font&gt;" style="text;html=1;strokeColor=none;fillColor=none;align=center;verticalAlign=middle;whiteSpace=wrap;rounded=0;sketch=0;fontColor=#000000;" parent="1" vertex="1">
                    <mxGeometry x="310" y="145" width="40" height="40" as="geometry"/>
                </mxCell>
                <mxCell id="48" value="" style="rounded=0;whiteSpace=wrap;html=1;fillColor=#60a917;fontColor=#ffffff;strokeColor=#000000;" parent="1" vertex="1">
                    <mxGeometry x="550" y="145" width="110" height="60" as="geometry"/>
                </mxCell>
                <mxCell id="49" value="" style="rounded=0;whiteSpace=wrap;html=1;sketch=0;strokeColor=#000000;fillColor=#60A917;" parent="1" vertex="1">
                    <mxGeometry x="660" y="145" width="120" height="60" as="geometry"/>
                </mxCell>
                <mxCell id="50" value="&lt;font style=&quot;font-size: 32px&quot;&gt;...&lt;/font&gt;" style="text;html=1;strokeColor=none;fillColor=none;align=center;verticalAlign=middle;whiteSpace=wrap;rounded=0;sketch=0;fontColor=#000000;" parent="1" vertex="1">
                    <mxGeometry x="510" y="155" width="40" height="40" as="geometry"/>
                </mxCell>
                <mxCell id="51" value="&lt;font style=&quot;font-size: 32px&quot;&gt;...&lt;/font&gt;" style="text;html=1;strokeColor=none;fillColor=none;align=center;verticalAlign=middle;whiteSpace=wrap;rounded=0;sketch=0;fontColor=#000000;" parent="1" vertex="1">
                    <mxGeometry x="810" y="145" width="40" height="40" as="geometry"/>
                </mxCell>
                <mxCell id="64" value="" style="group" parent="1" vertex="1" connectable="0">
                    <mxGeometry x="580" y="10" width="210" height="60" as="geometry"/>
                </mxCell>
                <mxCell id="65" value="Data over boundary between pages" style="text;html=1;strokeColor=none;fillColor=none;align=center;verticalAlign=middle;whiteSpace=wrap;rounded=0;sketch=0;fontSize=17;fontColor=#000000;" parent="64" vertex="1">
                    <mxGeometry y="5" width="120" height="50" as="geometry"/>
                </mxCell>
                <mxCell id="66" value="2" style="ellipse;whiteSpace=wrap;html=1;aspect=fixed;sketch=0;fontSize=17;" parent="64" vertex="1">
                    <mxGeometry x="150" width="60" height="60" as="geometry"/>
                </mxCell>
                <mxCell id="67" value="" style="group" parent="1" vertex="1" connectable="0">
                    <mxGeometry x="75" y="10" width="210" height="60" as="geometry"/>
                </mxCell>
                <mxCell id="68" value="Data is in one page" style="text;html=1;strokeColor=none;fillColor=none;align=center;verticalAlign=middle;whiteSpace=wrap;rounded=0;sketch=0;fontSize=17;fontColor=#000000;" parent="67" vertex="1">
                    <mxGeometry y="5" width="120" height="50" as="geometry"/>
                </mxCell>
                <mxCell id="69" value="1" style="ellipse;whiteSpace=wrap;html=1;aspect=fixed;sketch=0;fontSize=17;" parent="67" vertex="1">
                    <mxGeometry x="150" width="60" height="60" as="geometry"/>
                </mxCell>
                <mxCell id="70" value="4096&amp;nbsp; &amp;nbsp; bytes" style="rounded=0;whiteSpace=wrap;html=1;sketch=0;fillColor=#a20025;strokeColor=#6F0000;fontColor=#ffffff;fontSize=22;" parent="1" vertex="1">
                    <mxGeometry x="580" y="145" width="160" height="60" as="geometry"/>
                </mxCell>
                <mxCell id="71" value="" style="endArrow=none;html=1;entryX=1;entryY=0;entryDx=0;entryDy=0;exitX=0;exitY=1;exitDx=0;exitDy=0;strokeColor=#000000;" parent="1" source="49" target="48" edge="1">
                    <mxGeometry width="50" height="50" relative="1" as="geometry">
                        <mxPoint x="640" y="190" as="sourcePoint"/>
                        <mxPoint x="690" y="140" as="targetPoint"/>
                    </mxGeometry>
                </mxCell>
                <mxCell id="73" value="" style="rounded=0;whiteSpace=wrap;html=1;sketch=0;strokeColor=#000000;fillColor=#60A917;" parent="1" vertex="1">
                    <mxGeometry x="780" y="145" width="30" height="60" as="geometry"/>
                </mxCell>
                <mxCell id="75" style="edgeStyle=orthogonalEdgeStyle;rounded=0;orthogonalLoop=1;jettySize=auto;html=1;exitX=0.5;exitY=0;exitDx=0;exitDy=0;entryX=0;entryY=1;entryDx=0;entryDy=0;fontColor=#000000;endArrow=open;endFill=0;endSize=25;strokeColor=#000000;" parent="1" source="76" edge="1">
                    <mxGeometry relative="1" as="geometry">
                        <mxPoint x="100" y="205" as="targetPoint"/>
                    </mxGeometry>
                </mxCell>
                <mxCell id="76" value="check inside process' pagedir" style="text;html=1;strokeColor=none;fillColor=none;align=center;verticalAlign=middle;whiteSpace=wrap;rounded=0;sketch=0;fontColor=#000000;fontSize=17;" parent="1" vertex="1">
                    <mxGeometry x="30" y="255" width="140" height="60" as="geometry"/>
                </mxCell>
                <mxCell id="77" style="edgeStyle=orthogonalEdgeStyle;rounded=0;orthogonalLoop=1;jettySize=auto;html=1;exitX=0.5;exitY=0;exitDx=0;exitDy=0;entryX=0;entryY=1;entryDx=0;entryDy=0;fontColor=#000000;endArrow=open;endFill=0;endSize=25;strokeColor=#000000;" parent="1" source="79" target="70" edge="1">
                    <mxGeometry relative="1" as="geometry">
                        <mxPoint x="600" y="205" as="targetPoint"/>
                        <Array as="points">
                            <mxPoint x="650" y="240"/>
                            <mxPoint x="580" y="240"/>
                        </Array>
                    </mxGeometry>
                </mxCell>
                <mxCell id="78" style="edgeStyle=orthogonalEdgeStyle;rounded=0;orthogonalLoop=1;jettySize=auto;html=1;exitX=0.5;exitY=0;exitDx=0;exitDy=0;entryX=0.5;entryY=1;entryDx=0;entryDy=0;fontSize=17;fontColor=#000000;endArrow=open;endFill=0;endSize=25;strokeColor=#000000;" parent="1" source="79" edge="1">
                    <mxGeometry relative="1" as="geometry">
                        <mxPoint x="660" y="205" as="targetPoint"/>
                        <Array as="points">
                            <mxPoint x="650" y="240"/>
                            <mxPoint x="660" y="240"/>
                        </Array>
                    </mxGeometry>
                </mxCell>
                <mxCell id="79" value="check inside process' pagedir" style="text;html=1;strokeColor=none;fillColor=none;align=center;verticalAlign=middle;whiteSpace=wrap;rounded=0;sketch=0;fontColor=#000000;fontSize=17;" parent="1" vertex="1">
                    <mxGeometry x="580" y="260" width="140" height="60" as="geometry"/>
                </mxCell>
                <mxCell id="80" value="" style="shape=curlyBracket;whiteSpace=wrap;html=1;rounded=1;flipH=1;rotation=-90;strokeColor=#000000;" vertex="1" parent="1">
                    <mxGeometry x="170" y="50" width="20" height="160" as="geometry"/>
                </mxCell>
                <mxCell id="81" value="page" style="text;html=1;strokeColor=none;fillColor=none;align=center;verticalAlign=middle;whiteSpace=wrap;rounded=0;sketch=0;fontColor=#000000;fontSize=17;" vertex="1" parent="1">
                    <mxGeometry x="140" y="80" width="80" height="40" as="geometry"/>
                </mxCell>
                <mxCell id="82" value="" style="shape=curlyBracket;whiteSpace=wrap;html=1;rounded=1;flipH=1;rotation=-90;strokeColor=#000000;" vertex="1" parent="1">
                    <mxGeometry x="650" y="50" width="20" height="160" as="geometry"/>
                </mxCell>
                <mxCell id="83" value="page" style="text;html=1;strokeColor=none;fillColor=none;align=center;verticalAlign=middle;whiteSpace=wrap;rounded=0;sketch=0;fontColor=#000000;fontSize=17;" vertex="1" parent="1">
                    <mxGeometry x="620" y="80" width="80" height="40" as="geometry"/>
                </mxCell>
            </root>
        </mxGraphModel>
    </diagram>
</mxfile>